<svg xmlns="http://www.w3.org/2000/svg" viewBox="0 0 566.68 249.66" fill="#000">
    <g id="Layer_2" data-name="Layer 2">
        <g id="Layer_1-2" data-name="Layer 1">
            <path class="cls-1" d="M139.76,197.25V97.89H178v99.36q0,9,6.68,13.52a25.64,25.64,0,0,0,14.61,4.5,28.56,28.56,0,0,0,7.91-1.09,20.29,20.29,0,0,0,6.83-3.41,18.67,18.67,0,0,0,4.91-5.74,15.65,15.65,0,0,0,1.91-7.78V97.89h38.22v99.36q0,13.11-5.19,22.93a50.66,50.66,0,0,1-13.51,16.38,57.74,57.74,0,0,1-19.11,9.83,75.3,75.3,0,0,1-22,3.27,74,74,0,0,1-21.84-3.27,59.54,59.54,0,0,1-19.11-9.83,48.35,48.35,0,0,1-13.51-16.38Q139.76,210.36,139.76,197.25Z"/>
            <path class="cls-1" d="M324,97.89l31.39,72.88,31.67-72.88H425V247.21H387.07V204.08l.54-28.67-19.1,49.69H342.57L324,177.33v69.88H286.34V97.89Z"/>
            <path class="cls-1" d="M452.31,97.89h59.78q13.63,0,23.88,4.51A50.67,50.67,0,0,1,553,114.27a48.92,48.92,0,0,1,10.24,16.92,56.8,56.8,0,0,1,0,38.77A49.25,49.25,0,0,1,536,199q-10.23,4.5-23.88,4.5H490v43.68H452.31ZM512.09,170q8.46,0,12.69-5.74a21.15,21.15,0,0,0,0-25.38q-4.23-5.73-12.69-5.74H490V170Z"/>
            <polygon class="cls-1" points="75.07 61.75 46.61 61.75 91.2 0 135.78 61.75 112.44 61.75 112.44 90.74 75.07 90.74 75.07 61.75"/>
            <path class="cls-1" d="M35.76,196.43q1.37,9,7.78,13a25.3,25.3,0,0,0,13.51,4,20.85,20.85,0,0,0,12.56-4,12.36,12.36,0,0,0,5.46-10.51V132.56h-.28l.28-34.4h37.39V198.89a46.19,46.19,0,0,1-4.91,21.7,49.48,49.48,0,0,1-12.83,15.83,56.89,56.89,0,0,1-18.29,9.83,66.4,66.4,0,0,1-39.85.68,54.23,54.23,0,0,1-16.93-8.32A47.75,47.75,0,0,1,6.82,224.28,54.55,54.55,0,0,1,0,203.8Z"/>
        </g>
    </g>
</svg>
